<?xml version="1.0" encoding="UTF-8"?> <!-- Generator: Adobe Illustrator 27.3.0, SVG Export Plug-In . SVG Version: 6.00 Build 0) --> <svg xmlns="http://www.w3.org/2000/svg" xmlns:xlink="http://www.w3.org/1999/xlink" x="0px" y="0px" viewBox="0 0 72 72" style="enable-background:new 0 0 72 72;" xml:space="preserve"> <style type="text/css"> .st0{fill-rule:evenodd;clip-rule:evenodd;fill:url(#SVGID_1_);} .st1{fill-rule:evenodd;clip-rule:evenodd;fill:url(#SVGID_00000049931167601477611850000015704353932377617574_);} .st2{fill-rule:evenodd;clip-rule:evenodd;fill:url(#SVGID_00000092455376838062001300000006869767230170749119_);} .st3{fill-rule:evenodd;clip-rule:evenodd;fill:url(#SVGID_00000093863948385597112110000018171723517153890441_);} .st4{fill:url(#SVGID_00000090286072347076959420000009525006806941758089_);} .st5{fill:url(#SVGID_00000090276026686244948680000004907529906371086259_);} .st6{fill-rule:evenodd;clip-rule:evenodd;fill:url(#SVGID_00000078749808503887979300000003848179415364465814_);} .st7{fill-rule:evenodd;clip-rule:evenodd;fill:url(#SVGID_00000069363597082163530750000001515717488425571262_);} .st8{fill:#12C765;} .st9{fill-rule:evenodd;clip-rule:evenodd;fill:#12C765;} .st10{fill:#FFFFFF;} .st11{fill-rule:evenodd;clip-rule:evenodd;fill:#FFFFFF;} </style> <g id="Слой_1"> </g> <g id="Слой_2"> <path class="st8" d="M28.5,30.3c4.3,0.7,5.9,4.5,5.9,4.5l8.8,4.2c0.6,0.2,0.9,0.8,1,1.4l0.1,3.2c0,1.1-1,1.8-2,1.5l-14.8-4.7 c-0.2-0.1-0.4,0-0.5,0.2l-0.6,0.9c-0.2,0.2-0.1,0.6,0.2,0.7l17.3,5.5c1.3,0.4,2.6-0.6,2.6-1.9l0-1.3c0-0.5,0.4-0.9,0.9-1l11.3-0.6 c0.4-0.1,0.7,0.1,0.9,0.4l2.4,3.4c0.4,0.5,0.1,1.3-0.6,1.5l-21.4,4.6c0,0-5.5,0.6-7.3,0.2c-1.7-0.4-5.9-3.9-8.7-5.8 c-2.3-1.5-6.3-1-7.8-0.8c-0.3,0.1-0.6-0.2-0.7-0.5l-2.5-11.5c-0.1-0.3,0.1-0.6,0.4-0.7C15.8,32.8,26.3,29.9,28.5,30.3z"></path> <path class="st8" d="M56.7,24.9c-2.1-1.5-5.1-0.9-6.7,1.2l-0.5,0.7c-0.1,0.2-0.4,0.2-0.5,0L48.4,26c-1.6-2.1-4.6-2.7-6.7-1.2 c-2.2,1.6-2.6,4.6-1,6.8l8.2,8.8c0.2,0.2,0.5,0.2,0.7,0l8.1-8.8C59.3,29.5,58.9,26.4,56.7,24.9z"></path> </g> </svg> 